<?xml version="1.0" encoding="UTF-8"?>
<svg xmlns="http://www.w3.org/2000/svg" viewBox="395 365 2142 2227" width="2142" height="2227">
  <g transform="translate(0.000000,2940.000000) scale(0.100000,-0.100000)">
    <g fill="#1a2e44">
<path d="M14783 24692 c-45 -31 -124 -87 -175 -125 -51 -37 -178 -126 -283
-199 -104 -72 -269 -188 -365 -257 -96 -68 -224 -159 -285 -201 -175 -121
-343 -241 -436 -311 -97 -73 -139 -103 -291 -209 -128 -90 -426 -306 -558
-404 -52 -38 -138 -99 -190 -134 -52 -36 -201 -142 -330 -237 -129 -94 -262
-190 -295 -213 -33 -23 -99 -70 -147 -104 -47 -35 -124 -90 -170 -122 -45 -33
-153 -112 -238 -176 -85 -64 -211 -157 -280 -205 -69 -49 -186 -134 -260 -190
-74 -55 -192 -140 -261 -190 -320 -227 -505 -361 -644 -464 -82 -62 -184 -136
-225 -166 -41 -30 -111 -81 -155 -114 -44 -33 -154 -113 -245 -177 -91 -65
-259 -188 -375 -274 -115 -86 -229 -169 -252 -186 -234 -166 -350 -250 -603
-437 -74 -55 -151 -112 -170 -126 -19 -14 -129 -94 -245 -176 -414 -297 -481
-345 -544 -392 -35 -27 -73 -55 -85 -63 -12 -8 -48 -35 -80 -60 -79 -61 -104
-79 -167 -121 -30 -20 -110 -78 -179 -130 -69 -52 -156 -114 -193 -139 -127
-85 -177 -80 744 -80 590 0 816 3 832 11 12 7 44 30 71 53 27 23 62 50 77 61
15 11 107 83 206 161 201 159 296 231 379 289 31 22 98 72 148 110 50 39 134
102 186 140 93 69 141 106 409 309 73 55 146 110 161 121 60 42 370 273 773
575 460 345 533 399 728 540 137 100 358 264 594 441 77 58 203 152 280 209
77 57 194 143 260 192 66 48 215 156 330 239 116 84 235 171 265 194 30 23
114 84 185 135 72 51 191 139 265 194 312 231 402 297 540 394 80 56 324 231
542 389 891 646 861 627 924 571 22 -19 91 -71 154 -115 199 -138 444 -312
785 -557 647 -464 698 -500 835 -594 204 -140 261 -181 355 -252 55 -42 201
-148 325 -235 124 -87 261 -186 305 -219 45 -34 134 -99 198 -146 65 -47 148
-108 185 -135 37 -28 105 -77 152 -110 84 -57 172 -121 260 -188 25 -19 131
-96 235 -172 105 -76 240 -175 300 -220 127 -94 248 -181 356 -257 42 -29 121
-84 174 -123 137 -99 156 -112 195 -139 19 -13 85 -61 147 -107 62 -46 158
-118 215 -159 56 -41 184 -136 285 -210 100 -74 240 -175 309 -225 144 -102
571 -418 714 -529 52 -40 113 -85 135 -99 55 -36 71 -48 215 -154 209 -155
248 -183 320 -233 28 -19 100 -72 160 -117 60 -45 114 -85 120 -88 11 -7 1055
-7 1234 -1 54 2 123 1 154 -4 107 -14 124 16 40 70 -56 36 -359 255 -418 302
-19 15 -62 50 -95 76 -61 50 -139 108 -345 255 -63 45 -145 104 -182 132 -37
27 -92 68 -124 90 -31 22 -121 88 -200 146 -135 102 -422 311 -484 354 -58 40
-277 200 -350 255 -41 31 -109 81 -150 112 -41 30 -111 81 -155 113 -144 105
-158 115 -326 233 -252 179 -361 256 -512 366 -76 56 -148 108 -160 116 -12 8
-78 55 -147 104 -126 91 -141 103 -286 209 -76 57 -301 219 -568 410 -182 130
-273 196 -501 362 -110 80 -261 188 -335 240 -74 51 -223 157 -330 235 -107
78 -287 207 -400 288 -113 80 -254 182 -315 227 -60 45 -213 154 -340 243
-126 89 -271 192 -322 229 -199 148 -304 224 -438 318 -77 54 -183 130 -235
169 -52 39 -104 78 -117 86 -12 8 -109 78 -215 156 -188 137 -234 170 -402
284 -45 30 -126 88 -181 129 -299 223 -282 217 -402 133z"/>
<path d="M15056 18587 c-15 -11 -27 -5952 -12 -5976 2 -3 9 -80 15 -171 27
-383 153 -996 268 -1295 8 -22 24 -65 34 -95 20 -57 36 -92 112 -245 45 -90
80 -154 140 -252 18 -29 53 -88 79 -131 325 -537 944 -999 1628 -1215 259 -81
308 -95 439 -122 66 -14 148 -31 183 -39 35 -8 104 -19 153 -26 50 -6 133 -17
185 -25 359 -54 1384 -59 1940 -9 898 80 1606 325 2120 734 186 148 466 443
571 601 13 20 47 70 75 110 325 475 503 1038 589 1869 24 235 24 235 25 1765
1 3182 2 3132 -16 3150 -26 26 -1013 22 -1046 -5 -23 -18 -23 -18 -26 -2337
-2 -1990 -4 -2341 -17 -2477 -115 -1196 -625 -1932 -1570 -2266 -260 -92 -576
-151 -975 -181 -1859 -140 -2979 270 -3482 1276 -22 44 -50 100 -63 125 -12
25 -28 63 -35 84 -7 22 -21 53 -30 70 -10 17 -21 49 -25 71 -3 22 -17 67 -30
100 -13 33 -27 78 -30 100 -4 22 -18 76 -30 120 -13 44 -26 107 -30 140 -4 33
-18 112 -31 175 -43 212 -44 303 -44 3404 0 2181 -3 2962 -11 2972 -15 19
-1028 19 -1053 1z"/>
<path d="M11624 7129 c-97 -10 -311 -62 -409 -101 -74 -29 -154 -74 -287 -162
-70 -46 -230 -211 -282 -291 -22 -33 -48 -73 -58 -88 -11 -15 -26 -46 -34 -69
-8 -23 -19 -47 -25 -54 -78 -94 -128 -573 -86 -816 92 -532 493 -944 1023
-1050 208 -42 622 -21 736 38 16 8 58 24 93 35 35 11 67 24 70 29 3 4 21 14
41 20 146 49 397 269 484 425 12 22 28 47 35 55 154 184 236 691 162 1000 -28
115 -83 285 -99 306 -5 7 -22 38 -39 70 -219 430 -782 707 -1325 653z m372
-259 c55 -11 124 -30 154 -44 30 -13 72 -31 93 -40 144 -62 337 -235 442 -396
209 -322 207 -867 -6 -1180 -103 -151 -255 -291 -409 -377 -241 -132 -579
-155 -876 -58 -58 19 -118 44 -134 55 -15 11 -32 20 -37 20 -38 0 -267 210
-320 293 -341 537 -248 1182 223 1538 232 175 572 249 870 189z"/>
<path d="M4970 7083 c-25 -17 -32 -2537 -8 -2561 17 -17 234 -17 245 1 4 6 8
267 8 579 0 541 1 567 19 587 29 32 1514 33 1546 1 20 -20 20 -33 20 -595 0
-575 0 -575 23 -584 25 -9 220 -6 236 4 7 4 11 417 11 1280 0 1478 19 1303
-142 1300 -142 -2 -128 59 -128 -556 0 -528 0 -528 -24 -555 -35 -41 -1483
-53 -1529 -13 -28 24 -28 24 -33 564 -3 306 -9 545 -15 551 -14 17 -204 14
-229 -3z"/>
<path d="M16422 7084 c-25 -17 -35 -2531 -11 -2560 14 -17 244 -20 254 -4 3 5
6 459 6 1008 -1 981 0 999 19 1017 35 32 59 8 155 -155 21 -36 64 -104 94
-152 31 -48 70 -110 86 -138 17 -28 40 -65 53 -83 13 -18 66 -99 118 -182 53
-82 165 -253 248 -380 188 -284 202 -305 210 -331 32 -101 178 -100 236 3 27
48 134 216 200 313 9 14 25 41 35 60 10 19 51 87 93 150 151 232 245 378 268
417 10 17 40 63 66 102 26 38 54 83 63 98 8 15 35 60 60 98 24 39 44 73 45 78
1 19 74 116 90 120 56 14 53 70 52 -1027 0 -1171 -19 -1036 140 -1032 61 1
102 7 112 15 23 19 23 2543 0 2562 -10 8 -56 13 -127 14 -130 3 -157 -7 -186
-63 -11 -21 -42 -72 -68 -113 -27 -41 -65 -101 -83 -134 -19 -33 -89 -144
-157 -247 -68 -103 -123 -190 -123 -193 0 -5 -41 -70 -145 -230 -18 -27 -49
-79 -70 -115 -20 -35 -47 -77 -59 -91 -11 -15 -34 -50 -51 -78 -33 -57 -137
-221 -167 -264 -10 -15 -28 -48 -38 -72 -37 -87 -90 -82 -140 13 -31 57 -54
98 -95 162 -12 19 -53 85 -90 145 -38 61 -77 121 -88 135 -10 14 -41 59 -68
100 -27 41 -84 128 -126 193 -43 64 -89 136 -103 158 -14 23 -52 84 -85 135
-33 52 -87 137 -120 190 -33 53 -70 110 -82 127 -12 18 -45 72 -74 120 -29 49
-63 96 -77 105 -34 22 -240 27 -270 6z"/>
<path d="M22604 7085 c-21 -15 -33 -2537 -12 -2562 13 -16 1738 -19 1767 -4
27 15 28 197 1 211 -12 6 -286 10 -740 10 -721 0 -721 0 -745 25 -36 35 -40
890 -5 925 20 20 33 20 641 20 408 0 627 4 640 10 23 13 29 196 7 218 -9 9
-164 12 -635 12 -624 0 -624 0 -649 25 -25 25 -25 25 -23 423 1 218 5 407 10
419 17 45 14 45 759 44 603 -1 709 1 720 13 20 25 18 195 -2 210 -26 19 -1708
20 -1734 1z"/>
    </g>
    <g fill="#1a2e44">
<path d="M11075 18721 c-11 -5 -36 -28 -54 -52 -62 -79 -234 -271 -342 -384
-58 -60 -125 -136 -149 -168 -23 -32 -91 -108 -149 -170 -59 -62 -154 -166
-211 -232 -58 -67 -220 -254 -360 -415 -140 -162 -282 -322 -315 -355 -80 -80
-217 -231 -407 -450 -85 -99 -209 -237 -274 -306 -66 -69 -159 -169 -209 -223
-49 -54 -101 -110 -115 -125 -14 -15 -82 -92 -151 -171 -70 -80 -191 -215
-271 -301 -79 -86 -162 -178 -183 -205 -22 -27 -70 -80 -109 -119 -38 -38 -85
-90 -104 -115 -19 -25 -44 -54 -56 -65 -12 -11 -74 -78 -138 -150 -63 -71
-144 -160 -179 -197 -35 -36 -80 -85 -100 -108 -21 -23 -72 -78 -116 -123
-122 -127 -303 -323 -384 -417 -41 -47 -117 -130 -169 -185 -52 -55 -160 -172
-240 -260 -138 -152 -347 -378 -419 -454 -129 -137 -120 -98 -122 -601 -2
-398 -1 -414 18 -429 17 -14 75 -16 484 -14 420 1 4477 4 4627 3 122 0 110
159 106 -1422 -4 -1297 -3 -1377 14 -1396 32 -39 954 -29 989 10 16 18 18 104
21 1380 2 775 7 1371 13 1385 15 39 24 39 894 42 816 2 840 3 856 21 28 33 27
820 -1 845 -19 17 -61 18 -857 12 -884 -6 -866 -7 -903 38 -10 12 -12 74 -9
303 5 334 5 4975 1 5319 -2 176 -6 234 -16 242 -17 14 -882 26 -911 12z m-101
-1567 c27 -26 19 -4283 -7 -4312 -29 -32 10 -31 -1976 -33 -1894 -3 -1894 -3
-1912 20 -26 32 -19 43 110 176 64 66 155 165 202 220 48 55 120 138 160 183
41 46 94 108 119 137 99 118 310 355 395 445 50 52 122 131 160 175 39 44 135
151 215 238 80 87 174 192 210 232 171 193 285 320 400 445 508 556 507 554
615 680 44 52 132 148 195 214 115 121 307 337 600 673 85 98 194 218 242 268
47 49 110 119 138 155 83 104 103 116 134 84z"/>
    </g>
  </g>
</svg>
