<?xml version="1.0" encoding="UTF-8"?>
<svg xmlns="http://www.w3.org/2000/svg" viewBox="474.0 248.5 2012 2012" width="2012" height="2012">
  <g transform="translate(0.000000,2940.000000) scale(0.100000,-0.100000)">
    <g fill="#1a2e44">
<path d="M14783 24692 c-45 -31 -124 -87 -175 -125 -51 -37 -178 -126 -283
-199 -104 -72 -269 -188 -365 -257 -96 -68 -224 -159 -285 -201 -175 -121
-343 -241 -436 -311 -97 -73 -139 -103 -291 -209 -128 -90 -426 -306 -558
-404 -52 -38 -138 -99 -190 -134 -52 -36 -201 -142 -330 -237 -129 -94 -262
-190 -295 -213 -33 -23 -99 -70 -147 -104 -47 -35 -124 -90 -170 -122 -45 -33
-153 -112 -238 -176 -85 -64 -211 -157 -280 -205 -69 -49 -186 -134 -260 -190
-74 -55 -192 -140 -261 -190 -320 -227 -505 -361 -644 -464 -82 -62 -184 -136
-225 -166 -41 -30 -111 -81 -155 -114 -44 -33 -154 -113 -245 -177 -91 -65
-259 -188 -375 -274 -115 -86 -229 -169 -252 -186 -234 -166 -350 -250 -603
-437 -74 -55 -151 -112 -170 -126 -19 -14 -129 -94 -245 -176 -414 -297 -481
-345 -544 -392 -35 -27 -73 -55 -85 -63 -12 -8 -48 -35 -80 -60 -79 -61 -104
-79 -167 -121 -30 -20 -110 -78 -179 -130 -69 -52 -156 -114 -193 -139 -127
-85 -177 -80 744 -80 590 0 816 3 832 11 12 7 44 30 71 53 27 23 62 50 77 61
15 11 107 83 206 161 201 159 296 231 379 289 31 22 98 72 148 110 50 39 134
102 186 140 93 69 141 106 409 309 73 55 146 110 161 121 60 42 370 273 773
575 460 345 533 399 728 540 137 100 358 264 594 441 77 58 203 152 280 209
77 57 194 143 260 192 66 48 215 156 330 239 116 84 235 171 265 194 30 23
114 84 185 135 72 51 191 139 265 194 312 231 402 297 540 394 80 56 324 231
542 389 891 646 861 627 924 571 22 -19 91 -71 154 -115 199 -138 444 -312
785 -557 647 -464 698 -500 835 -594 204 -140 261 -181 355 -252 55 -42 201
-148 325 -235 124 -87 261 -186 305 -219 45 -34 134 -99 198 -146 65 -47 148
-108 185 -135 37 -28 105 -77 152 -110 84 -57 172 -121 260 -188 25 -19 131
-96 235 -172 105 -76 240 -175 300 -220 127 -94 248 -181 356 -257 42 -29 121
-84 174 -123 137 -99 156 -112 195 -139 19 -13 85 -61 147 -107 62 -46 158
-118 215 -159 56 -41 184 -136 285 -210 100 -74 240 -175 309 -225 144 -102
571 -418 714 -529 52 -40 113 -85 135 -99 55 -36 71 -48 215 -154 209 -155
248 -183 320 -233 28 -19 100 -72 160 -117 60 -45 114 -85 120 -88 11 -7 1055
-7 1234 -1 54 2 123 1 154 -4 107 -14 124 16 40 70 -56 36 -359 255 -418 302
-19 15 -62 50 -95 76 -61 50 -139 108 -345 255 -63 45 -145 104 -182 132 -37
27 -92 68 -124 90 -31 22 -121 88 -200 146 -135 102 -422 311 -484 354 -58 40
-277 200 -350 255 -41 31 -109 81 -150 112 -41 30 -111 81 -155 113 -144 105
-158 115 -326 233 -252 179 -361 256 -512 366 -76 56 -148 108 -160 116 -12 8
-78 55 -147 104 -126 91 -141 103 -286 209 -76 57 -301 219 -568 410 -182 130
-273 196 -501 362 -110 80 -261 188 -335 240 -74 51 -223 157 -330 235 -107
78 -287 207 -400 288 -113 80 -254 182 -315 227 -60 45 -213 154 -340 243
-126 89 -271 192 -322 229 -199 148 -304 224 -438 318 -77 54 -183 130 -235
169 -52 39 -104 78 -117 86 -12 8 -109 78 -215 156 -188 137 -234 170 -402
284 -45 30 -126 88 -181 129 -299 223 -282 217 -402 133z"/>
<path d="M15056 18587 c-15 -11 -27 -5952 -12 -5976 2 -3 9 -80 15 -171 27
-383 153 -996 268 -1295 8 -22 24 -65 34 -95 20 -57 36 -92 112 -245 45 -90
80 -154 140 -252 18 -29 53 -88 79 -131 325 -537 944 -999 1628 -1215 259 -81
308 -95 439 -122 66 -14 148 -31 183 -39 35 -8 104 -19 153 -26 50 -6 133 -17
185 -25 359 -54 1384 -59 1940 -9 898 80 1606 325 2120 734 186 148 466 443
571 601 13 20 47 70 75 110 325 475 503 1038 589 1869 24 235 24 235 25 1765
1 3182 2 3132 -16 3150 -26 26 -1013 22 -1046 -5 -23 -18 -23 -18 -26 -2337
-2 -1990 -4 -2341 -17 -2477 -115 -1196 -625 -1932 -1570 -2266 -260 -92 -576
-151 -975 -181 -1859 -140 -2979 270 -3482 1276 -22 44 -50 100 -63 125 -12
25 -28 63 -35 84 -7 22 -21 53 -30 70 -10 17 -21 49 -25 71 -3 22 -17 67 -30
100 -13 33 -27 78 -30 100 -4 22 -18 76 -30 120 -13 44 -26 107 -30 140 -4 33
-18 112 -31 175 -43 212 -44 303 -44 3404 0 2181 -3 2962 -11 2972 -15 19
-1028 19 -1053 1z"/>
    </g>
    <g fill="#a8824c">
<path d="M11075 18721 c-11 -5 -36 -28 -54 -52 -62 -79 -234 -271 -342 -384
-58 -60 -125 -136 -149 -168 -23 -32 -91 -108 -149 -170 -59 -62 -154 -166
-211 -232 -58 -67 -220 -254 -360 -415 -140 -162 -282 -322 -315 -355 -80 -80
-217 -231 -407 -450 -85 -99 -209 -237 -274 -306 -66 -69 -159 -169 -209 -223
-49 -54 -101 -110 -115 -125 -14 -15 -82 -92 -151 -171 -70 -80 -191 -215
-271 -301 -79 -86 -162 -178 -183 -205 -22 -27 -70 -80 -109 -119 -38 -38 -85
-90 -104 -115 -19 -25 -44 -54 -56 -65 -12 -11 -74 -78 -138 -150 -63 -71
-144 -160 -179 -197 -35 -36 -80 -85 -100 -108 -21 -23 -72 -78 -116 -123
-122 -127 -303 -323 -384 -417 -41 -47 -117 -130 -169 -185 -52 -55 -160 -172
-240 -260 -138 -152 -347 -378 -419 -454 -129 -137 -120 -98 -122 -601 -2
-398 -1 -414 18 -429 17 -14 75 -16 484 -14 420 1 4477 4 4627 3 122 0 110
159 106 -1422 -4 -1297 -3 -1377 14 -1396 32 -39 954 -29 989 10 16 18 18 104
21 1380 2 775 7 1371 13 1385 15 39 24 39 894 42 816 2 840 3 856 21 28 33 27
820 -1 845 -19 17 -61 18 -857 12 -884 -6 -866 -7 -903 38 -10 12 -12 74 -9
303 5 334 5 4975 1 5319 -2 176 -6 234 -16 242 -17 14 -882 26 -911 12z m-101
-1567 c27 -26 19 -4283 -7 -4312 -29 -32 10 -31 -1976 -33 -1894 -3 -1894 -3
-1912 20 -26 32 -19 43 110 176 64 66 155 165 202 220 48 55 120 138 160 183
41 46 94 108 119 137 99 118 310 355 395 445 50 52 122 131 160 175 39 44 135
151 215 238 80 87 174 192 210 232 171 193 285 320 400 445 508 556 507 554
615 680 44 52 132 148 195 214 115 121 307 337 600 673 85 98 194 218 242 268
47 49 110 119 138 155 83 104 103 116 134 84z"/>
    </g>
  </g>
</svg>
